<svg width="64" height="65" viewBox="0 0 64 65" fill="none" xmlns="http://www.w3.org/2000/svg">
<path d="M25.6 40.1533L27.488 38.2333L21.7547 32.5L27.488 26.7666L25.6 24.8466L17.9467 32.5L25.6 40.1533ZM38.4 40.1533L46.0534 32.5L38.4 24.8466L36.512 26.7666L42.2454 32.5L36.512 38.2333L38.4 40.1533ZM14.976 53.8333C13.7814 53.8333 12.7645 53.4138 11.9254 52.5746C11.0862 51.7355 10.6667 50.7195 10.6667 49.5266V15.4733C10.6667 14.2822 11.0862 13.2662 11.9254 12.4253C12.7645 11.5862 13.7814 11.1666 14.976 11.1666H27.5094C27.2658 9.80487 27.5911 8.57554 28.4854 7.47865C29.3778 6.38176 30.5494 5.83331 32 5.83331C33.4845 5.83331 34.6738 6.38176 35.568 7.47865C36.4622 8.57554 36.7707 9.80487 36.4934 11.1666H49.0267C50.2178 11.1666 51.2338 11.5862 52.0747 12.4253C52.9138 13.2644 53.3334 14.2813 53.3334 15.476V49.5266C53.3334 50.7178 52.9138 51.7338 52.0747 52.5746C51.2356 53.4138 50.2196 53.8333 49.0267 53.8333H14.976ZM14.976 51.1666H49.0267C49.4356 51.1666 49.8116 50.996 50.1547 50.6546C50.4978 50.3133 50.6685 49.9364 50.6667 49.524V15.476C50.6667 15.0653 50.496 14.6884 50.1547 14.3453C49.8134 14.0022 49.4365 13.8315 49.024 13.8333H14.976C14.5654 13.8333 14.1885 14.004 13.8454 14.3453C13.5022 14.6866 13.3316 15.0635 13.3334 15.476V49.5266C13.3334 49.9355 13.504 50.3115 13.8454 50.6546C14.1867 50.9978 14.5627 51.1684 14.9734 51.1666M32 12.3453C32.5778 12.3453 33.056 12.1569 33.4347 11.78C33.8134 11.4031 34.0018 10.9249 34 10.3453C33.9982 9.76576 33.8089 9.28842 33.432 8.91331C33.0551 8.5382 32.5778 8.34887 32 8.34531C31.4222 8.34176 30.9449 8.53109 30.568 8.91331C30.1911 9.29554 30.0018 9.77287 30 10.3453C29.9982 10.9178 30.1876 11.396 30.568 11.78C30.9485 12.164 31.4258 12.3524 32 12.3453Z" fill="white"/>
</svg>
