<svg width="64" height="65" viewBox="0 0 64 65" fill="none" xmlns="http://www.w3.org/2000/svg">
<path d="M44.2667 55.068C43.616 55.0674 42.9752 54.9082 42.4 54.604L32.624 49.4653C32.4331 49.3653 32.2208 49.3131 32.0053 49.3131C31.7898 49.3131 31.5775 49.3653 31.3867 49.4653L21.6 54.604C20.9394 54.9517 20.1946 55.1075 19.45 55.054C18.7054 55.0004 17.9906 54.7395 17.3866 54.3008C16.7825 53.8621 16.3133 53.2632 16.032 52.5717C15.7506 51.8802 15.6684 51.1238 15.7947 50.388L17.6613 39.5026C17.6979 39.29 17.6823 39.0716 17.6159 38.8663C17.5494 38.661 17.4342 38.4749 17.28 38.324L9.37599 30.6146C8.84113 30.0936 8.46279 29.4332 8.2838 28.7083C8.1048 27.9834 8.1323 27.2228 8.36318 26.5127C8.59406 25.8026 9.0191 25.1712 9.59019 24.6902C10.1613 24.2091 10.8556 23.8975 11.5947 23.7906L22.528 22.1906C22.7416 22.1595 22.9444 22.077 23.119 21.9502C23.2937 21.8234 23.4349 21.6561 23.5307 21.4626L28.4187 11.5586C28.749 10.8895 29.26 10.3261 29.8938 9.93217C30.5277 9.53823 31.2591 9.32947 32.0053 9.32947C32.7516 9.32947 33.483 9.53823 34.1168 9.93217C34.7506 10.3261 35.2616 10.8895 35.592 11.5586L40.48 21.4626C40.5754 21.6566 40.7165 21.8244 40.8912 21.9517C41.0658 22.079 41.2688 22.1619 41.4827 22.1933L52.416 23.7933C53.155 23.9002 53.8494 24.2118 54.4205 24.6929C54.9915 25.1739 55.4166 25.8052 55.6475 26.5153C55.8783 27.2255 55.9058 27.986 55.7268 28.711C55.5479 29.4359 55.1695 30.0963 54.6347 30.6173L46.728 38.3266C46.5733 38.4773 46.4576 38.6633 46.3907 38.8686C46.3238 39.0739 46.3078 39.2924 46.344 39.5053L48.2107 50.3906C48.3093 50.965 48.2813 51.554 48.1286 52.1164C47.9758 52.6788 47.7021 53.201 47.3264 53.6465C46.9507 54.092 46.4822 54.4501 45.9537 54.6956C45.4252 54.9411 44.8494 55.0682 44.2667 55.068ZM33.8667 47.1053L43.6373 52.2333C43.8575 52.3487 44.1055 52.4003 44.3534 52.3822C44.6013 52.3641 44.8392 52.277 45.0403 52.1309C45.2414 51.9847 45.3976 51.7853 45.4913 51.5551C45.585 51.3248 45.6125 51.073 45.5707 50.828L43.704 39.9426C43.5944 39.3032 43.642 38.6467 43.8427 38.0297C44.0434 37.4128 44.3912 36.8539 44.856 36.4013L52.7627 28.6946C52.9409 28.521 53.0671 28.301 53.1268 28.0594C53.1865 27.8178 53.1774 27.5643 53.1005 27.3277C53.0237 27.091 52.8821 26.8805 52.6918 26.7201C52.5016 26.5597 52.2703 26.4557 52.024 26.42L41.0907 24.82C40.4485 24.7268 39.8386 24.4789 39.3136 24.0974C38.7886 23.716 38.3643 23.2126 38.0773 22.6306L33.1973 12.7506C33.0777 12.5375 32.9035 12.3601 32.6926 12.2366C32.4817 12.1131 32.2417 12.048 31.9973 12.048C31.7529 12.048 31.5129 12.1131 31.302 12.2366C31.0911 12.3601 30.9169 12.5375 30.7973 12.7506L25.9173 22.6546C25.63 23.2361 25.2055 23.739 24.6806 24.1199C24.1556 24.5009 23.5459 24.7484 22.904 24.8413L11.9707 26.4413C11.7244 26.4771 11.493 26.581 11.3028 26.7414C11.1125 26.9019 10.971 27.1123 10.8941 27.349C10.8173 27.5857 10.8082 27.8391 10.8679 28.0807C10.9276 28.3223 11.0537 28.5424 11.232 28.716L19.1467 36.4146C19.6126 36.8686 19.9609 37.4294 20.1611 38.0483C20.3614 38.6673 20.4077 39.3258 20.296 39.9666L18.4293 50.852C18.3871 51.0974 18.4145 51.3497 18.5083 51.5803C18.6021 51.8109 18.7586 52.0107 18.9601 52.1569C19.1616 52.3032 19.4 52.3901 19.6484 52.4079C19.8967 52.4256 20.1451 52.3735 20.3653 52.2573L30.1333 47.1053C30.7087 46.8017 31.3494 46.643 32 46.643C32.6505 46.643 33.2913 46.8017 33.8667 47.1053Z" fill="white"/>
</svg>
