<svg width="25" height="26" viewBox="0 0 25 26" fill="none" xmlns="http://www.w3.org/2000/svg">
<path d="M24 0.5H1C0.446875 0.5 0 0.946875 0 1.5V24.5C0 25.0531 0.446875 25.5 1 25.5H24C24.5531 25.5 25 25.0531 25 24.5V1.5C25 0.946875 24.5531 0.5 24 0.5ZM23 23.5H17.2469V15.8188H20.4969L20.9844 12.0469H17.2469V9.6375C17.2469 8.54375 17.55 7.8 19.1156 7.8H21.1125V4.425C20.7656 4.37813 19.5813 4.275 18.2 4.275C15.3188 4.275 13.3469 6.03437 13.3469 9.2625V12.0437H10.0906V15.8156H13.35V23.5H2V2.5H23V23.5Z" fill="white"/>
</svg>
