<svg width="26" height="26" viewBox="0 0 26 26" fill="none" xmlns="http://www.w3.org/2000/svg">
<path fill-rule="evenodd" clip-rule="evenodd" d="M13 1.92659e-06C5.82133 1.92659e-06 0 5.82134 0 13C0 20.1787 5.82133 26 13 26C20.1787 26 26 20.1787 26 13C26.0005 12.1289 25.9157 11.2599 25.7467 10.4053C25.7016 10.1785 25.5794 9.97424 25.4007 9.8274C25.222 9.68056 24.9979 9.6002 24.7667 9.6H13C12.7348 9.6 12.4804 9.70536 12.2929 9.89289C12.1054 10.0804 12 10.3348 12 10.6V15.4C12 15.952 12.448 16.4 13 16.4H18.1773C17.7971 16.9768 17.324 17.4868 16.7773 17.9093H16.7747L16.7773 17.912C15.697 18.7504 14.3675 19.2038 13 19.2C11.3557 19.2 9.77866 18.5468 8.61594 17.3841C7.45321 16.2213 6.8 14.6443 6.8 13C6.8 11.3557 7.45321 9.77866 8.61594 8.61594C9.77866 7.45321 11.3557 6.8 13 6.8C14.5787 6.8 16.0133 7.39467 17.112 8.37067C17.3026 8.54031 17.5509 8.63066 17.8059 8.62323C18.061 8.61579 18.3036 8.51113 18.484 8.33067L21.8773 4.936C21.9723 4.84105 22.0471 4.72794 22.0974 4.60343C22.1477 4.47892 22.1724 4.34555 22.1701 4.21129C22.1677 4.07703 22.1383 3.94461 22.0837 3.82195C22.029 3.69929 21.9502 3.58889 21.852 3.49734C19.4532 1.24875 16.2879 -0.00179163 13 1.92659e-06ZM17.2693 20C16.3273 20.5748 15.279 20.9535 14.1871 21.1134C13.0953 21.2734 11.9824 21.2114 10.9151 20.931C9.84776 20.6506 8.84803 20.1577 7.97575 19.4818C7.10347 18.8059 6.3766 17.9609 5.83867 16.9973L3.60267 18.72C4.58433 20.3325 5.96446 21.6652 7.61027 22.5899C9.25609 23.5147 11.1122 24.0003 13 24C15.428 24 17.6733 23.2133 19.4933 21.88L17.2693 20ZM21.0067 20.5413C22.9324 18.503 24.0037 15.8041 24 13C24 12.536 23.9693 12.0613 23.9133 11.6H14V14.4H19.7813C19.9413 14.4 20.0989 14.4384 20.241 14.512C20.383 14.5855 20.5054 14.6921 20.5977 14.8227C20.6901 14.9533 20.7497 15.1042 20.7717 15.2627C20.7937 15.4211 20.7773 15.5825 20.724 15.7333C20.3256 16.8534 19.6902 17.8744 18.8613 18.7267L21.0067 20.5413ZM3.69333 7.13467C4.68351 5.56134 6.05671 4.26499 7.6844 3.36696C9.31208 2.46894 11.141 1.99861 13 2C15.5227 2 17.84 2.856 19.6973 4.288L17.6973 6.288C16.3231 5.31823 14.682 4.79837 13 4.8C11.5809 4.79983 10.186 5.16796 8.95177 5.86839C7.71755 6.56882 6.68623 7.57757 5.95867 8.796L3.69333 7.13467ZM2.77333 8.94C2.25978 10.2319 1.99732 11.6098 2 13C1.99777 14.3273 2.23723 15.6439 2.70667 16.8853L5.06267 15.0693C4.88809 14.3934 4.79983 13.6981 4.8 13C4.8 12.192 4.91733 11.4107 5.13467 10.672L2.77333 8.94Z" fill="white"/>
</svg>
