<svg width="24" height="24" viewBox="0 0 24 24" fill="none" xmlns="http://www.w3.org/2000/svg">
<path fill-rule="evenodd" clip-rule="evenodd" d="M5.73306 2.04281C6.95006 0.832808 8.95406 1.04781 9.97306 2.40981L11.2351 4.09381C12.0651 5.20181 11.9911 6.74981 11.0061 7.72881L10.7681 7.96681C10.7411 8.06672 10.7383 8.17163 10.7601 8.27281C10.8231 8.68081 11.1641 9.54481 12.5921 10.9648C14.0201 12.3848 14.8901 12.7248 15.3041 12.7888C15.4084 12.8098 15.5161 12.8067 15.6191 12.7798L16.0271 12.3738C16.9031 11.5038 18.2471 11.3408 19.3311 11.9298L21.2411 12.9698C22.8781 13.8578 23.2911 16.0818 21.9511 17.4148L20.5301 18.8268C20.0821 19.2718 19.4801 19.6428 18.7461 19.7118C16.9361 19.8808 12.7191 19.6648 8.28606 15.2578C4.14906 11.1438 3.35506 7.55581 3.25406 5.78781C3.20406 4.89381 3.62606 4.13781 4.16406 3.60381L5.73306 2.04281ZM8.77306 3.30881C8.26606 2.63181 7.32206 2.57781 6.79006 3.10681L5.22006 4.66681C4.89006 4.99481 4.73206 5.35681 4.75206 5.70281C4.83206 7.10781 5.47206 10.3448 9.34406 14.1948C13.4061 18.2328 17.1571 18.3538 18.6071 18.2178C18.9031 18.1908 19.1971 18.0368 19.4721 17.7638L20.8921 16.3508C21.4701 15.7768 21.3431 14.7308 20.5251 14.2868L18.6151 13.2478C18.0871 12.9618 17.4691 13.0558 17.0851 13.4378L16.6301 13.8908L16.1001 13.3588C16.6301 13.8908 16.6291 13.8918 16.6281 13.8918L16.6271 13.8938L16.6241 13.8968L16.6171 13.9028L16.6021 13.9168C16.5599 13.956 16.5144 13.9915 16.4661 14.0228C16.3861 14.0758 16.2801 14.1348 16.1471 14.1838C15.8771 14.2848 15.5191 14.3388 15.0771 14.2708C14.2101 14.1378 13.0611 13.5468 11.5341 12.0288C10.0081 10.5108 9.41206 9.36881 9.27806 8.50281C9.20906 8.06081 9.26406 7.70281 9.36606 7.43281C9.42219 7.28088 9.50257 7.13904 9.60406 7.01281L9.63606 6.97781L9.65006 6.96281L9.65606 6.95681L9.65906 6.95381L9.66106 6.95181L9.94906 6.66581C10.3771 6.23881 10.4371 5.53181 10.0341 4.99281L8.77306 3.30881Z" fill="white"/>
</svg>
