<svg width="64" height="64" viewBox="0 0 64 64" fill="none" xmlns="http://www.w3.org/2000/svg">
<path d="M20.8571 46.6157V17.1429M32 46.8014V32M43.1428 46.8571V24.5714M13.4285 6H50.5714C52.5416 6 54.431 6.78265 55.8242 8.17578C57.2173 9.56891 58 11.4584 58 13.4286V50.5714C58 52.5416 57.2173 54.4311 55.8242 55.8242C54.431 57.2173 52.5416 58 50.5714 58H13.4285C11.4583 58 9.56886 57.2173 8.17573 55.8242C6.7826 54.4311 5.99995 52.5416 5.99995 50.5714V13.4286C5.99995 11.4584 6.7826 9.56891 8.17573 8.17578C9.56886 6.78265 11.4583 6 13.4285 6Z" stroke="white" stroke-width="3" stroke-linecap="round" stroke-linejoin="round"/>
</svg>
