<svg width="64" height="65" viewBox="0 0 64 65" fill="none" xmlns="http://www.w3.org/2000/svg">
<path d="M59.0187 27.2546C58.9625 26.9477 58.8004 26.6701 58.5607 26.4703C58.3209 26.2706 58.0187 26.1612 57.7067 26.1613H32.592C32.2393 26.1613 31.901 26.301 31.6511 26.5499C31.4012 26.7988 31.2601 27.1366 31.2587 27.4893V37.8066C31.2587 38.1603 31.3991 38.4994 31.6492 38.7494C31.8992 38.9995 32.2384 39.14 32.592 39.14H45.2187C44.4284 41.4355 42.9035 43.4065 40.88 44.748C38.4081 46.3252 35.5235 47.1327 32.592 47.068C29.5438 47.039 26.5825 46.0487 24.13 44.2383C21.6775 42.4279 19.8589 39.8897 18.9333 36.9853V36.98C17.9093 33.9714 17.9093 30.7085 18.9333 27.7V27.6946C19.8586 24.7911 21.6764 22.2535 24.1279 20.4432C26.5793 18.6328 29.5394 17.6421 32.5867 17.612C36.0349 17.5543 39.3677 18.8539 41.8667 21.2306C42.1183 21.4725 42.4548 21.606 42.8038 21.6025C43.1528 21.599 43.4865 21.4588 43.7333 21.212L51.3813 13.5613C51.5082 13.4346 51.6081 13.2836 51.6753 13.1174C51.7424 12.9512 51.7754 12.7732 51.7721 12.5939C51.7689 12.4147 51.7295 12.238 51.6564 12.0743C51.5833 11.9106 51.478 11.7633 51.3467 11.6413C46.2681 6.88565 39.5519 4.2706 32.5947 4.33997C27.4007 4.32405 22.3057 5.76003 17.8845 8.48587C13.4633 11.2117 9.89195 15.1189 7.57333 19.7666C5.6147 23.6685 4.59473 27.9741 4.59473 32.34C4.59473 36.7059 5.6147 41.0114 7.57333 44.9133C9.89195 49.561 13.4633 53.4682 17.8845 56.1941C22.3057 58.9199 27.4007 60.3559 32.5947 60.34C39.4161 60.5194 46.0481 58.0849 51.1333 53.5346L51.1467 53.5293C53.9007 50.8716 56.0689 47.6676 57.5123 44.1229C58.9556 40.5782 59.6422 36.7709 59.528 32.9453C59.528 31.036 59.3547 29.132 59.0187 27.2546ZM32.5947 7.00664C38.4003 6.94557 44.0374 8.95666 48.4933 12.6786L42.7333 18.4386C39.8627 16.1308 36.2776 14.8956 32.5947 14.9453C29.3033 14.9687 26.0887 15.9419 23.337 17.748C20.5853 19.5541 18.4135 22.1162 17.0827 25.1266L10.4693 19.996C12.6565 16.0485 15.8637 12.7608 19.7557 10.4763C23.6477 8.19186 28.0818 6.99183 32.5947 7.00664ZM7.26133 32.3426C7.25281 28.9428 7.936 25.5768 9.26933 22.4493L16.1307 27.7666C15.2979 30.7596 15.2979 33.923 16.1307 36.916L9.26933 42.2333C7.94905 39.1017 7.26554 35.7385 7.25867 32.34M32.592 57.6733C28.0784 57.6883 23.6436 56.4908 19.751 54.2058C15.8585 51.9209 12.6511 48.6324 10.464 44.684L17.08 39.5533C18.4109 42.5637 20.5826 45.1258 23.3343 46.9319C26.086 48.738 29.3006 49.7112 32.592 49.7346C35.721 49.7819 38.8071 49.0028 41.5387 47.476L41.832 47.7026L48.1333 52.5986C43.6854 56.0173 38.2003 57.8084 32.592 57.6733ZM50.144 50.7826L43.8027 45.86C46.1287 43.8362 47.698 41.0821 48.2533 38.0493C48.2885 37.8573 48.281 37.6598 48.2315 37.471C48.1819 37.2821 48.0915 37.1065 47.9666 36.9564C47.8418 36.8063 47.6854 36.6855 47.5087 36.6025C47.332 36.5195 47.1392 36.4763 46.944 36.476H33.9253V28.8253H56.5707C56.7627 30.1924 56.8587 31.5657 56.8587 32.9453C57.0513 39.5432 54.6392 45.9491 50.144 50.7826Z" fill="white"/>
</svg>
