<svg width="24" height="36" viewBox="0 0 24 36" fill="none" xmlns="http://www.w3.org/2000/svg">
<mask id="mask0_317_102" style="mask-type:luminance" maskUnits="userSpaceOnUse" x="0" y="0" width="24" height="36">
<path d="M15.6162 23.0701C16.6449 21.8368 17.6035 20.5472 18.4876 19.2072C18.6621 18.9389 18.83 18.6757 18.991 18.4177V26.2691C18.991 27.379 18.5483 28.4434 17.7602 29.2282C16.9721 30.013 15.9032 30.4539 14.7886 30.4539H9.04821C7.93365 30.4539 6.86473 30.013 6.07662 29.2282C5.28851 28.4434 4.84575 27.379 4.84575 26.2691V18.4161C5.00738 18.6757 5.17521 18.9389 5.34924 19.2056C6.23277 20.5459 7.19143 21.8356 8.22064 23.0685L11.9164 27.4014L15.6162 23.0701ZM6.90172 10.5446C6.90172 9.2193 7.43039 7.94833 8.37143 7.01124C9.31246 6.07415 10.5888 5.54769 11.9196 5.54769C13.2504 5.54769 14.5268 6.07415 15.4678 7.01124C16.4088 7.94833 16.9375 9.2193 16.9375 10.5446C16.9375 14.0606 11.9196 19.9443 11.9196 19.9443C11.9196 19.9443 6.90172 14.0606 6.90172 10.5446ZM11.9196 0.71903C10.6236 0.718078 9.34013 0.971573 8.14259 1.46501C6.94505 1.95846 5.85696 2.68216 4.94055 3.59473C4.02413 4.50731 3.29738 5.59084 2.80186 6.78336C2.30634 7.97588 2.05178 9.25398 2.05274 10.5446C2.05274 12.1444 2.5142 13.9085 3.45409 15.8842C2.53254 15.9007 1.6543 16.2767 1.00832 16.9314C0.362352 17.5861 0.000275527 18.4672 0 19.385V26.2675C0 28.658 0.95363 30.9506 2.6511 32.641C4.34858 34.3313 6.65085 35.281 9.05144 35.281H14.7951C17.1956 35.281 19.4979 34.3313 21.1954 32.641C22.8929 30.9506 23.8465 28.658 23.8465 26.2675V19.385C23.8462 18.4671 23.484 17.5859 22.8379 16.9312C22.1917 16.2764 21.3133 15.9005 20.3916 15.8842C21.3315 13.9085 21.7929 12.1444 21.7929 10.5446C21.7939 9.25344 21.5391 7.97481 21.0432 6.78187C20.5473 5.58893 19.82 4.50511 18.9029 3.59245C17.9858 2.6798 16.8969 1.95622 15.6986 1.46316C14.5003 0.9701 13.2162 0.717231 11.9196 0.71903Z" fill="white"/>
</mask>
<g mask="url(#mask0_317_102)">
<path d="M23.8392 0.71911H0V35.2778H23.8392V0.71911Z" fill="url(#paint0_linear_317_102)"/>
</g>
<defs>
<linearGradient id="paint0_linear_317_102" x1="12.0635" y1="35.2388" x2="12.0635" y2="0.680095" gradientUnits="userSpaceOnUse">
<stop stop-color="#EA8CFF"/>
<stop offset="1" stop-color="#227AFF"/>
</linearGradient>
</defs>
</svg>
