<svg width="97" height="30" viewBox="0 0 97 30" fill="none" xmlns="http://www.w3.org/2000/svg">
<path fill-rule="evenodd" clip-rule="evenodd" d="M16.1734 8.9175C15.9904 8.92615 15.8075 8.89674 15.6365 8.83113C15.4655 8.76553 15.3101 8.66517 15.1802 8.53646C15.0561 8.40648 14.9593 8.25305 14.8957 8.08524C14.832 7.91743 14.8027 7.73863 14.8096 7.55937C14.8025 7.38085 14.8328 7.20282 14.8987 7.03664C14.9646 6.87046 15.0646 6.71978 15.1922 6.59423C15.3228 6.47071 15.4769 6.37444 15.6454 6.31105C15.8139 6.24767 15.9934 6.21846 16.1734 6.22513C16.5337 6.22297 16.881 6.35948 17.1426 6.60617C17.2778 6.72569 17.3853 6.87306 17.4576 7.03807C17.5299 7.20308 17.5652 7.38178 17.5612 7.56176C17.5673 7.74407 17.5341 7.92556 17.464 8.09407C17.3938 8.26258 17.2884 8.41423 17.1546 8.53885C16.8905 8.789 16.5378 8.92509 16.1734 8.9175ZM15.1682 23.3326V10.7725H17.2074V23.329L15.1682 23.3326ZM0.367142 23.329V6.48676H6.22917C7.47346 6.48676 8.54223 6.68903 9.43547 7.09356C10.2994 7.4733 11.0168 8.1211 11.4806 8.94024C11.9508 9.76682 12.1864 10.8152 12.1872 12.0853C12.1872 13.3252 11.9121 14.3696 11.3619 15.2185C10.8148 16.066 10.028 16.7335 9.1008 17.1368C8.14119 17.5652 7.04044 17.7798 5.79854 17.7806H2.4483V23.3314L0.367142 23.329ZM2.4483 15.8957H5.70258C6.99486 15.8957 8.04363 15.5899 8.8489 14.9784C9.65418 14.3668 10.0572 13.3714 10.058 11.9921C10.058 10.7857 9.73095 9.8807 9.07681 9.27708C8.42268 8.67347 7.44147 8.37166 6.1332 8.37166H2.4483V15.8957ZM20.9989 10.7725V23.329H23.0213V17.5871C23.0081 16.6939 23.1585 15.8058 23.4651 14.9664C23.7245 14.2376 24.1812 13.5944 24.7846 13.1078C25.3885 12.6401 26.137 12.396 26.9017 12.4173C27.5702 12.4173 28.1044 12.5404 28.5043 12.7864C28.9015 13.0299 29.221 13.3807 29.4255 13.7982C29.6498 14.2553 29.7954 14.7467 29.8561 15.2519C29.9294 15.8127 29.9654 16.3777 29.9641 16.9432V23.3278H32.0032V16.3998C32.0177 15.4012 31.8682 14.4071 31.5606 13.4565C31.2931 12.6325 30.7734 11.9125 30.0744 11.3973C29.3835 10.8892 28.4239 10.6352 27.1956 10.6352C26.6654 10.638 26.1382 10.714 25.629 10.8609C25.1052 11.0073 24.6083 11.2364 24.1572 11.5394C23.7132 11.8392 23.3379 12.2292 23.0561 12.6837L22.9613 10.7725H20.9989ZM41.1509 23.4723C39.8266 23.4723 38.7179 23.1984 37.8246 22.6505C36.9414 22.1127 36.2444 21.3187 35.8274 20.375C35.3884 19.4059 35.1689 18.3018 35.1689 17.0627C35.1689 15.8085 35.3924 14.7008 35.8394 13.7397C36.2683 12.8015 36.9677 12.0115 37.8486 11.4702C38.7419 10.9127 39.8586 10.634 41.1989 10.634C42.5231 10.634 43.6279 10.9127 44.5131 11.4702C45.3872 12.0127 46.0785 12.8031 46.4983 13.7397C46.9373 14.7 47.1568 15.8077 47.1568 17.0627C47.1771 18.2022 46.9483 19.3324 46.4863 20.375C46.0664 21.3167 45.3718 22.1107 44.4927 22.6541C43.6075 23.1996 42.4935 23.4723 41.1509 23.4723ZM41.1509 21.6806C42.0761 21.6806 42.8298 21.474 43.412 21.0607C43.9984 20.6419 44.4478 20.0602 44.7038 19.3884C45.262 17.8812 45.262 16.2252 44.7038 14.718C44.4475 14.0463 43.9981 13.4647 43.412 13.0457C42.8298 12.634 42.0761 12.4273 41.1509 12.4257C40.2416 12.4257 39.496 12.6324 38.9138 13.0457C38.327 13.464 37.8775 14.0458 37.6219 14.718C37.0637 16.2252 37.0637 17.8812 37.6219 19.3884C37.8772 20.0607 38.3267 20.6426 38.9138 21.0607C39.4984 21.4772 40.244 21.6854 41.1509 21.6854V21.6806ZM50.3944 10.7725V23.329L52.4264 23.323V16.5144C52.425 15.8916 52.5048 15.2713 52.6639 14.669C52.8168 14.0673 53.1263 13.5165 53.5611 13.0719C53.9953 12.6355 54.5951 12.4173 55.3604 12.4173C55.9025 12.4165 56.3296 12.5316 56.6414 12.7625C56.9507 12.9907 57.1839 13.3062 57.3108 13.668C57.4495 14.0562 57.5382 14.4604 57.5747 14.8708C57.6139 15.2984 57.6334 15.7113 57.6334 16.1095V23.329H59.6726V16.4905C59.6734 16.0226 59.7216 15.556 59.8166 15.0978C59.9093 14.6356 60.071 14.1899 60.2964 13.7755C60.5029 13.3804 60.8026 13.041 61.1696 12.7864C61.5634 12.5299 62.0272 12.4009 62.4975 12.4173C63.0549 12.4165 63.4895 12.5316 63.8013 12.7625C64.114 12.9957 64.3576 13.3085 64.5067 13.668C64.6687 14.0509 64.7695 14.4568 64.8053 14.8708C64.8461 15.2973 64.8653 15.7213 64.8653 16.1334V23.3302H66.9045V15.1109C66.9155 14.3357 66.7859 13.5648 66.5218 12.8354C66.2858 12.1861 65.8554 11.6245 65.2887 11.2264C64.7218 10.8283 63.9761 10.6292 63.0517 10.6292C62.5198 10.6229 61.9906 10.7036 61.4851 10.8681C61.0247 11.0216 60.5954 11.2554 60.2172 11.5585C59.832 11.8715 59.497 12.2413 59.224 12.655C58.9622 12.063 58.5397 11.5554 58.0041 11.1894C57.4635 10.8167 56.7534 10.6304 55.8738 10.6304C55.417 10.6271 54.9621 10.687 54.5219 10.8084C53.6791 11.0362 52.9454 11.5559 52.4527 12.274L52.3568 10.7725H50.3944ZM74.5031 23.4723C73.9406 23.4742 73.3806 23.3978 72.8394 23.2454C72.3216 23.1039 71.8339 22.8699 71.4 22.555C70.9791 22.2482 70.6351 21.8488 70.3948 21.388C70.1384 20.8823 70.0111 20.3214 70.0241 19.7551C70.0241 19.0384 70.1557 18.4348 70.4188 17.9443C70.6654 17.4697 71.0322 17.0674 71.4827 16.7772C71.9608 16.4788 72.4891 16.2688 73.0421 16.1573C73.648 16.0282 74.2661 15.9637 74.8857 15.965H78.5946C78.608 15.3325 78.5064 14.7028 78.2948 14.1064C78.1131 13.604 77.7731 13.1737 77.3256 12.8796C76.8793 12.5858 76.2892 12.4385 75.5551 12.4377C75.1361 12.4345 74.7183 12.4826 74.3112 12.581C73.9566 12.6638 73.6227 12.8179 73.33 13.0337C73.0524 13.2482 72.8439 13.5388 72.7302 13.8699H70.5543C70.6494 13.3352 70.8756 12.8321 71.2128 12.4054C71.5435 11.9973 71.951 11.6573 72.4123 11.4044C72.889 11.1399 73.4006 10.9433 73.9321 10.8203C74.4651 10.6948 75.0109 10.6311 75.5587 10.6304C77.3771 10.6304 78.6694 11.1624 79.4355 12.2263C80.2016 13.2901 80.5842 14.7275 80.5834 16.5383V23.329H78.8813L78.7614 21.7332C78.4317 22.1921 77.9982 22.5674 77.4959 22.8285C77.0191 23.0769 76.5064 23.2498 75.9761 23.3409C75.4896 23.4256 74.9969 23.4695 74.5031 23.4723ZM74.6938 21.6806C75.4041 21.6975 76.1099 21.5635 76.7642 21.2876C77.3214 21.0465 77.7926 20.6435 78.116 20.1314C78.4359 19.6241 78.5958 19.0046 78.5958 18.2727V17.654H76.3695C75.8434 17.654 75.3236 17.662 74.8102 17.6779C74.3427 17.6911 73.8782 17.7577 73.4259 17.8762C73.0463 17.9674 72.7014 18.1661 72.4327 18.4483C72.1856 18.7183 72.0621 19.1077 72.0621 19.6165C72.0442 20.0368 72.1755 20.4499 72.4327 20.7836C72.6934 21.0937 73.0338 21.3274 73.4175 21.4596C73.8259 21.6108 74.2582 21.6872 74.6938 21.6854V21.6806ZM84.3224 10.775V27.8561L86.3544 27.8585V21.7595C86.6446 22.1106 86.983 22.4194 87.3596 22.6768C87.7681 22.9516 88.2215 23.1537 88.6994 23.2741C89.2624 23.4156 89.8413 23.4839 90.4219 23.4771C91.7142 23.4771 92.775 23.1984 93.6042 22.641C94.4369 22.082 95.0794 21.2843 95.4467 20.3536C95.8603 19.3069 96.064 18.1898 96.0464 17.0651C96.0646 15.9421 95.8655 14.826 95.4599 13.7779C95.1008 12.8496 94.4719 12.049 93.6534 11.4785C92.8433 10.9147 91.7986 10.6328 90.5191 10.6328C89.6882 10.6262 88.8664 10.805 88.1141 11.156C87.3988 11.4835 86.7897 12.0036 86.3556 12.6575L86.2608 10.775H84.3224ZM92.4575 21.0535C91.9153 21.4748 91.1816 21.6854 90.2564 21.6854C89.3783 21.6862 88.6458 21.4859 88.0589 21.0846C87.4619 20.6826 87.0017 20.1094 86.7394 19.441C86.4422 18.6903 86.2959 17.8887 86.3088 17.0819C86.2998 16.2847 86.4545 15.4941 86.7634 14.7586C87.0412 14.0838 87.5007 13.4985 88.0913 13.0672C88.6726 12.6459 89.3783 12.4353 90.2084 12.4353C91.132 12.4369 91.8737 12.6435 92.4335 13.0552C92.9978 13.4771 93.4193 14.0606 93.6414 14.7275C93.897 15.4794 94.0223 16.269 94.0121 17.0627C94.0212 17.8486 93.8959 18.6302 93.6414 19.3741C93.4196 20.0368 93.0081 20.6206 92.4575 21.0535Z" fill="#00022F"/>
</svg>
